<?xml version="1.0" standalone="no"?>
<!DOCTYPE svg PUBLIC "-//W3C//DTD SVG 20010904//EN"
 "http://www.w3.org/TR/2001/REC-SVG-20010904/DTD/svg10.dtd">
<svg version="1.0" xmlns="http://www.w3.org/2000/svg"
 width="880.000000pt" height="880.000000pt" viewBox="0 0 880.000000 880.000000"
 preserveAspectRatio="xMidYMid meet">
<metadata>
Created by potrace 1.14, written by Peter Selinger 2001-2017
</metadata>
<g transform="translate(0.000000,880.000000) scale(0.100000,-0.100000)"
fill="#000000" stroke="none">
<path d="M3984 8295 c-707 -70 -1405 -343 -1969 -769 -288 -217 -582 -510
-784 -781 -457 -611 -719 -1299 -782 -2052 -15 -189 -7 -645 16 -813 123 -917
518 -1705 1176 -2345 303 -295 602 -505 994 -700 308 -152 586 -250 910 -319
303 -65 504 -86 836 -86 635 0 1183 127 1744 405 375 186 677 396 958 666 l98
94 -1003 1004 c-552 552 -1012 1015 -1022 1028 l-19 25 937 937 c515 515 936
939 936 944 0 4 -206 7 -458 7 l-457 0 -945 -945 -945 -945 687 -687 c722
-722 1451 -1460 1456 -1473 7 -17 -290 -192 -473 -279 -766 -364 -1644 -435
-2465 -199 -1063 305 -1938 1122 -2315 2163 -144 398 -209 770 -208 1200 1
397 54 727 173 1086 435 1308 1573 2230 2945 2385 179 20 526 22 700 5 446
-45 819 -151 1223 -348 l134 -65 161 162 162 161 -25 19 c-42 32 -327 175
-455 228 -369 155 -744 248 -1145 287 -179 18 -597 18 -776 0z"/>
<path d="M6585 7242 c-126 -125 -592 -585 -1035 -1022 -443 -437 -962 -950
-1153 -1140 -192 -190 -351 -347 -353 -350 -3 -2 -432 423 -954 945 l-950 950
0 -1903 0 -1902 320 0 320 0 0 1122 0 1123 630 -630 629 -629 88 84 c48 46
264 258 478 470 215 212 597 590 850 840 253 250 649 642 880 871 518 512 634
624 645 624 19 0 207 -237 307 -385 675 -1012 776 -2301 266 -3404 -77 -166
-155 -306 -264 -471 l-79 -119 157 -158 c87 -87 161 -158 165 -158 10 0 228
331 288 438 227 406 381 850 456 1310 62 384 59 895 -6 1279 -143 834 -533
1576 -1141 2168 -116 114 -299 275 -310 275 -2 0 -107 -103 -234 -228z"/>
</g>
</svg>
